<svg width="368" height="92" viewBox="0 0 368 92" fill="none" xmlns="http://www.w3.org/2000/svg">
<path d="M18.408 79.088L18.4233 79.0995L18.4387 79.1109C24.9253 83.8986 33.2437 86.04 42.912 86.04C52.1485 86.04 60.0613 84.0467 66.0347 79.4273C72.2405 74.6282 75.176 67.7512 75.176 59.536C75.176 53.5212 73.3064 48.1936 69.3421 43.9567C66.0831 40.3619 61.3689 37.7428 55.6624 35.832H69.024H74.5602L73.9982 30.3244C73.2262 22.7595 69.8653 16.4859 63.9715 11.8429C58.044 7.10807 50.403 5 41.568 5C35.8142 5 30.5556 5.90941 25.9116 7.88272C21.2534 9.79786 17.4224 12.6856 14.6399 16.6139L14.6339 16.6224L14.6279 16.6308C11.849 20.5888 10.552 25.2085 10.552 30.256C10.552 36.2449 12.4438 41.5573 16.3872 45.8364L16.4218 45.8739L16.4571 45.9107C19.3588 48.9333 23.2662 51.2795 27.9319 53.096H26.208H12H6.3484L7.03728 58.7055C8.08185 67.2112 11.8356 74.1587 18.408 79.088ZM49.9027 31.759L50.3794 34.2857L39.5462 31.2944C39.545 31.2941 39.5438 31.2937 39.5425 31.2934C38.0172 30.8695 36.9213 30.4478 36.1732 30.0685C35.5757 29.7656 35.3347 29.5573 35.2804 29.5084C34.8743 28.953 34.76 28.5019 34.76 28.048C34.76 27.7507 34.8186 27.6471 34.8403 27.6093C34.8716 27.5548 35.0018 27.3524 35.4466 27.0655L32.736 22.864L35.4466 27.0655C36.3554 26.4792 37.9605 25.944 40.704 25.944C43.8734 25.944 45.9708 26.6045 47.3639 27.5211L47.3887 27.5374L47.4137 27.5534C48.5587 28.2874 49.4721 29.4771 49.9027 31.759ZM31.172 57.4969L30.7626 54.1047C31.5587 54.3642 32.3732 54.6107 33.2049 54.8449L33.2171 54.8483L33.2292 54.8516L46.0932 58.4036L46.1175 58.4103L46.1418 58.4168C48.9293 59.1563 50.0276 59.9546 50.3483 60.3074L50.3873 60.3503L50.4273 60.3923C50.645 60.6209 50.968 61.0822 50.968 62.32C50.968 62.8099 50.8997 63.1961 49.9877 63.7861L49.959 63.8048L49.9305 63.8237C48.9824 64.4558 47.078 65.096 43.584 65.096C39.4509 65.096 36.5073 64.2056 34.4058 62.8001C32.4341 61.4226 31.4435 59.7468 31.172 57.4969ZM122.388 83.1816L122.4 83.1864L122.412 83.1911C127.404 85.1731 132.772 86.136 138.465 86.136C144.152 86.136 149.495 85.175 154.434 83.1864C159.378 81.2214 163.703 78.4251 167.345 74.7835C171.039 71.0892 173.871 66.738 175.841 61.7823C177.894 56.7164 178.889 51.2443 178.889 45.424C178.889 37.6447 177.186 30.5869 173.621 24.4125C170.162 18.3124 165.341 13.5282 159.225 10.1387C153.067 6.72603 146.066 5.096 138.369 5.096C130.782 5.096 123.827 6.7338 117.631 10.1265L117.62 10.1326L117.609 10.1387C111.49 13.53 106.667 18.3172 103.208 24.4218C99.7045 30.5399 98.041 37.5651 98.041 45.328C98.041 51.1888 98.9959 56.6798 100.977 61.742L100.993 61.783L101.01 61.8237C103.034 66.74 105.845 71.0653 109.454 74.7476L109.489 74.7837L109.525 74.8191C113.209 78.4288 117.512 81.2164 122.388 83.1816ZM151.737 55.6995L151.729 55.716L151.721 55.7325C150.35 58.5755 148.522 60.6784 146.251 62.1917L149.025 66.352L146.251 62.1918C144.076 63.6418 141.509 64.424 138.369 64.424C135.292 64.424 132.74 63.6722 130.552 62.2673C128.3 60.7582 126.484 58.6662 125.12 55.8437C123.772 52.9907 123.017 49.4972 123.017 45.232C123.017 41.0085 123.748 37.663 125.01 35.0345C126.361 32.2886 128.151 30.3103 130.363 28.928C132.553 27.5595 135.165 26.808 138.369 26.808C141.654 26.808 144.294 27.5673 146.471 28.928C148.687 30.3131 150.48 32.2967 151.833 35.0514C153.161 37.7577 153.913 41.1033 153.913 45.232C153.913 49.4051 153.136 52.851 151.737 55.6995ZM204.395 80.176V85.176H209.395H211.307H216.307H224.179H229.179H257.395H262.395V80.176V68.848V63.848H257.395H229.179V11.056V6.056H224.179H209.395H204.395V11.056V80.176ZM305.849 83.1816L305.861 83.1864L305.873 83.1911C310.865 85.1731 316.234 86.136 321.926 86.136C327.613 86.136 332.956 85.175 337.896 83.1863C342.84 81.2213 347.164 78.425 350.806 74.7835C354.501 71.0885 357.333 66.7365 359.304 61.7797C361.356 56.7145 362.35 51.2433 362.35 45.424C362.35 37.6441 360.647 30.5858 357.081 24.4111C353.622 18.3116 348.801 13.528 342.686 10.1387C336.528 6.72603 329.527 5.096 321.83 5.096C314.243 5.096 307.288 6.7338 301.093 10.1265L301.082 10.1326L301.07 10.1387C294.951 13.53 290.129 18.3172 286.669 24.4218C283.166 30.5399 281.502 37.5651 281.502 45.328C281.502 51.1888 282.457 56.6798 284.438 61.742L284.454 61.783L284.471 61.8237C286.495 66.74 289.307 71.0654 292.915 74.7476L292.951 74.7837L292.987 74.8191C296.67 78.4288 300.973 81.2164 305.849 83.1816ZM335.198 55.6995L335.19 55.716L335.182 55.7325C333.812 58.5755 331.983 60.6784 329.713 62.1918C327.538 63.6418 324.97 64.424 321.83 64.424C318.753 64.424 316.201 63.6721 314.013 62.267C311.761 60.7577 309.945 58.6654 308.581 55.8425C307.233 52.9897 306.478 49.4966 306.478 45.232C306.478 41.0085 307.209 37.6629 308.471 35.0344C309.822 32.2886 311.613 30.3103 313.824 28.928C316.014 27.5595 318.626 26.808 321.83 26.808C325.115 26.808 327.755 27.5673 329.932 28.928C332.148 30.3131 333.942 32.2967 335.294 35.0514C336.622 37.7577 337.374 41.1033 337.374 45.232C337.374 49.4051 336.598 52.851 335.198 55.6995Z" fill="white" stroke="white" stroke-width="10"/>
</svg>
